# xmcd CD database file
#
# Track frame offsets:
#	150
#	22231
#	41767
#	89535
#	106963
#	131141
#	153034
#	172069
#	197626
#	215346
#	233258
#	247781
#	267960
#	271418
#	287902
#	318911
#
# Disc length: 4329 seconds
#
# Revision: 11
# Processed by: cddbd v1.5.1PL2 Copyright (c) Steve Scherf et al.
# Submitted via: CDex 1.51
#
DISCID=df10e710
DTITLE=Tom Waits - Real Gone
DYEAR=2004
DGENRE=Rhythm and Blues
TTITLE0=Top Of The Hill
TTITLE1=Hoist That Rag
TTITLE2=Sins Of My Father
TTITLE3=Shake It
TTITLE4=Don't Go Into That Barn
TTITLE5=How's It Gonna End
TTITLE6=Metropolitan Glide
TTITLE7=Dead And Lovely
TTITLE8=Circus
TTITLE9=Trampled Rose
TTITLE10=Green Grass
TTITLE11=Baby Gonna Leave Me
TTITLE12=Clang Boom Steam
TTITLE13=Make It Rain
TTITLE14=Day After Tomorrow
TTITLE15=Chick A Boom
EXTD=YEAR: 2004
EXTT0=
EXTT1=
EXTT2=
EXTT3=
EXTT4=
EXTT5=
EXTT6=
EXTT7=
EXTT8=
EXTT9=
EXTT10=
EXTT11=
EXTT12=
EXTT13=
EXTT14=
EXTT15=
PLAYORDER=
